<?xml version="1.0" encoding="UTF-8"?>
<svg xmlns="http://www.w3.org/2000/svg" xmlns:xlink="http://www.w3.org/1999/xlink" width="16px" height="16px" viewBox="0 0 16 16" version="1.1">
<g id="surface1">
<path style=" stroke:none;fill-rule:nonzero;fill:rgb(25.882354%,68.627453%,93.725491%);fill-opacity:1;" d="M 7.644531 5.882812 C 6.476562 5.882812 5.527344 6.832031 5.527344 8 C 5.527344 9.167969 6.476562 10.117188 7.644531 10.117188 C 8.808594 10.117188 9.761719 9.167969 9.761719 8 C 9.761719 6.832031 8.808594 5.882812 7.644531 5.882812 Z M 7.644531 9.617188 C 6.75 9.617188 6.027344 8.890625 6.027344 8 C 6.027344 7.109375 6.75 6.382812 7.644531 6.382812 C 8.535156 6.382812 9.261719 7.109375 9.261719 8 C 9.261719 8.890625 8.535156 9.617188 7.644531 9.617188 Z M 7.644531 9.617188 "/>
<path style=" stroke:none;fill-rule:nonzero;fill:rgb(25.882354%,68.627453%,93.725491%);fill-opacity:1;" d="M 15.371094 3.867188 C 15.371094 3.21875 14.84375 2.695312 14.199219 2.695312 C 13.894531 2.695312 13.613281 2.8125 13.40625 3.003906 C 12.628906 2.753906 11.550781 2.8125 10.328125 3.132812 C 10.25 2.886719 10.164062 2.652344 10.074219 2.425781 C 9.445312 0.863281 8.582031 0 7.644531 0 C 6.703125 0 5.839844 0.863281 5.210938 2.425781 C 5.121094 2.652344 5.039062 2.886719 4.960938 3.136719 C 4.710938 3.070312 4.464844 3.015625 4.226562 2.972656 C 2.566406 2.667969 1.378906 2.9375 0.875 3.730469 C 0.507812 4.316406 0.554688 5.113281 1.003906 6.046875 C 0.773438 6.261719 0.628906 6.566406 0.628906 6.902344 C 0.628906 7.550781 1.15625 8.074219 1.800781 8.074219 C 1.992188 8.074219 2.175781 8.027344 2.335938 7.945312 C 2.351562 7.964844 2.367188 7.980469 2.382812 8 C 2.105469 8.304688 1.851562 8.613281 1.632812 8.917969 C 0.644531 10.28125 0.375 11.472656 0.875 12.269531 C 1.242188 12.851562 1.980469 13.152344 3 13.152344 C 3.371094 13.152344 3.78125 13.109375 4.226562 13.03125 C 4.464844 12.984375 4.710938 12.929688 4.960938 12.863281 C 5.039062 13.113281 5.121094 13.347656 5.210938 13.574219 C 5.839844 15.136719 6.703125 16 7.644531 16 C 8.582031 16 9.445312 15.136719 10.074219 13.574219 C 10.164062 13.347656 10.25 13.113281 10.328125 12.863281 C 10.578125 12.929688 10.820312 12.984375 11.058594 13.03125 C 11.503906 13.109375 11.914062 13.152344 12.285156 13.152344 C 13.304688 13.152344 14.042969 12.851562 14.410156 12.269531 C 14.910156 11.472656 14.644531 10.28125 13.652344 8.917969 C 13.433594 8.613281 13.183594 8.304688 12.90625 8 C 13.890625 6.921875 14.511719 5.851562 14.632812 4.953125 C 15.066406 4.78125 15.371094 4.359375 15.371094 3.867188 Z M 10.375 5.789062 C 10.070312 5.570312 9.757812 5.363281 9.4375 5.15625 C 9.027344 4.902344 8.617188 4.660156 8.203125 4.441406 C 8.808594 4.164062 9.40625 3.929688 9.988281 3.753906 C 10.15625 4.378906 10.285156 5.066406 10.375 5.789062 Z M 5.675781 2.613281 C 6.214844 1.269531 6.933594 0.5 7.644531 0.5 C 8.355469 0.5 9.070312 1.269531 9.609375 2.613281 C 9.695312 2.820312 9.773438 3.042969 9.84375 3.269531 C 9.144531 3.488281 8.398438 3.785156 7.644531 4.15625 C 6.894531 3.789062 6.152344 3.492188 5.441406 3.273438 C 5.511719 3.042969 5.59375 2.824219 5.675781 2.613281 Z M 5.300781 3.75 C 5.875 3.929688 6.476562 4.160156 7.082031 4.441406 C 6.671875 4.660156 6.261719 4.898438 5.851562 5.15625 C 5.527344 5.363281 5.214844 5.570312 4.914062 5.789062 C 5 5.066406 5.128906 4.378906 5.300781 3.75 Z M 1.300781 4 C 1.679688 3.398438 2.714844 3.203125 4.136719 3.460938 C 4.359375 3.503906 4.585938 3.554688 4.820312 3.613281 C 4.605469 4.402344 4.453125 5.273438 4.367188 6.191406 C 3.765625 6.65625 3.210938 7.144531 2.726562 7.636719 C 2.726562 7.632812 2.722656 7.632812 2.722656 7.628906 C 2.878906 7.429688 2.972656 7.175781 2.972656 6.902344 C 2.972656 6.257812 2.449219 5.734375 1.800781 5.734375 C 1.671875 5.734375 1.550781 5.753906 1.433594 5.792969 C 0.988281 4.851562 1.109375 4.300781 1.300781 4 Z M 4.316406 9.128906 C 3.863281 8.761719 3.449219 8.382812 3.070312 8 C 3.445312 7.617188 3.863281 7.238281 4.316406 6.871094 C 4.292969 7.242188 4.285156 7.617188 4.285156 8 C 4.285156 8.382812 4.292969 8.757812 4.316406 9.128906 Z M 1.800781 7.578125 C 1.429688 7.578125 1.128906 7.273438 1.128906 6.902344 C 1.128906 6.535156 1.429688 6.230469 1.800781 6.230469 C 2.171875 6.230469 2.472656 6.535156 2.472656 6.902344 C 2.472656 7.273438 2.171875 7.578125 1.800781 7.578125 Z M 4.136719 12.539062 C 2.710938 12.796875 1.679688 12.601562 1.300781 12 C 0.921875 11.398438 1.1875 10.382812 2.039062 9.210938 C 2.242188 8.929688 2.472656 8.644531 2.726562 8.363281 C 3.214844 8.859375 3.765625 9.34375 4.367188 9.808594 C 4.453125 10.726562 4.605469 11.597656 4.820312 12.386719 C 4.585938 12.445312 4.359375 12.496094 4.136719 12.539062 Z M 4.914062 10.210938 C 5.214844 10.429688 5.527344 10.636719 5.851562 10.84375 C 6.257812 11.097656 6.671875 11.339844 7.082031 11.558594 C 6.476562 11.839844 5.875 12.070312 5.300781 12.25 C 5.128906 11.621094 5 10.933594 4.914062 10.210938 Z M 9.609375 13.386719 C 9.070312 14.730469 8.355469 15.5 7.644531 15.5 C 6.933594 15.5 6.214844 14.730469 5.675781 13.386719 C 5.59375 13.175781 5.511719 12.957031 5.441406 12.726562 C 6.152344 12.507812 6.894531 12.210938 7.644531 11.84375 C 8.394531 12.210938 9.136719 12.507812 9.847656 12.726562 C 9.773438 12.957031 9.695312 13.175781 9.609375 13.386719 Z M 9.988281 12.25 C 9.410156 12.070312 8.8125 11.839844 8.203125 11.558594 C 8.617188 11.339844 9.027344 11.097656 9.4375 10.84375 C 9.757812 10.636719 10.074219 10.425781 10.375 10.210938 C 10.285156 10.933594 10.15625 11.621094 9.988281 12.25 Z M 9.167969 10.417969 C 8.664062 10.738281 8.152344 11.027344 7.644531 11.285156 C 7.136719 11.027344 6.625 10.738281 6.117188 10.417969 C 5.675781 10.140625 5.25 9.847656 4.84375 9.542969 C 4.804688 9.042969 4.785156 8.523438 4.785156 8 C 4.785156 7.476562 4.804688 6.957031 4.84375 6.457031 C 5.25 6.152344 5.671875 5.859375 6.117188 5.582031 C 6.625 5.261719 7.132812 4.972656 7.644531 4.714844 C 8.152344 4.972656 8.664062 5.261719 9.167969 5.582031 C 9.613281 5.859375 10.039062 6.152344 10.441406 6.457031 C 10.480469 6.957031 10.503906 7.476562 10.503906 8 C 10.503906 8.523438 10.480469 9.039062 10.441406 9.542969 C 10.039062 9.84375 9.613281 10.136719 9.167969 10.417969 Z M 13.25 9.210938 C 14.097656 10.382812 14.367188 11.398438 13.988281 12 C 13.609375 12.601562 12.574219 12.796875 11.152344 12.539062 C 10.929688 12.496094 10.699219 12.445312 10.46875 12.386719 C 10.679688 11.597656 10.832031 10.726562 10.917969 9.808594 C 11.527344 9.339844 12.078125 8.851562 12.558594 8.363281 C 12.816406 8.644531 13.046875 8.929688 13.25 9.210938 Z M 10.972656 6.871094 C 11.421875 7.238281 11.839844 7.617188 12.214844 8 C 11.84375 8.378906 11.425781 8.757812 10.972656 9.128906 C 10.992188 8.757812 11.003906 8.378906 11.003906 8 C 11.003906 7.617188 10.992188 7.242188 10.972656 6.871094 Z M 12.558594 7.636719 C 12.074219 7.144531 11.523438 6.65625 10.917969 6.191406 C 10.832031 5.273438 10.679688 4.402344 10.46875 3.613281 C 11.535156 3.335938 12.453125 3.277344 13.109375 3.4375 C 13.054688 3.570312 13.027344 3.714844 13.027344 3.867188 C 13.027344 4.484375 13.507812 4.992188 14.113281 5.035156 C 13.960938 5.792969 13.40625 6.707031 12.558594 7.636719 Z M 13.527344 3.867188 C 13.527344 3.496094 13.828125 3.195312 14.199219 3.195312 C 14.570312 3.195312 14.871094 3.496094 14.871094 3.867188 C 14.871094 4.234375 14.570312 4.539062 14.199219 4.539062 C 13.828125 4.539062 13.527344 4.234375 13.527344 3.867188 Z M 13.527344 3.867188 "/>
</g>
</svg>
