<?xml version="1.0" encoding="UTF-8"?>
<svg xmlns="http://www.w3.org/2000/svg" xmlns:xlink="http://www.w3.org/1999/xlink" width="36px" height="36px" viewBox="0 0 36 36" version="1.1">
<g id="surface1">
<path style=" stroke:none;fill-rule:nonzero;fill:rgb(25.882354%,68.627453%,93.725491%);fill-opacity:1;" d="M 17.199219 13.238281 C 14.570312 13.238281 12.433594 15.375 12.433594 18 C 12.433594 20.625 14.570312 22.761719 17.199219 22.761719 C 19.824219 22.761719 21.960938 20.625 21.960938 18 C 21.960938 15.375 19.824219 13.238281 17.199219 13.238281 Z M 17.199219 21.636719 C 15.191406 21.636719 13.558594 20.003906 13.558594 18 C 13.558594 15.996094 15.191406 14.363281 17.199219 14.363281 C 19.203125 14.363281 20.835938 15.996094 20.835938 18 C 20.835938 20.003906 19.203125 21.636719 17.199219 21.636719 Z M 17.199219 21.636719 "/>
<path style=" stroke:none;fill-rule:nonzero;fill:rgb(25.882354%,68.627453%,93.725491%);fill-opacity:1;" d="M 34.582031 8.699219 C 34.582031 7.242188 33.402344 6.0625 31.945312 6.0625 C 31.257812 6.0625 30.632812 6.324219 30.164062 6.757812 C 28.414062 6.195312 25.992188 6.324219 23.234375 7.046875 C 23.058594 6.496094 22.871094 5.964844 22.667969 5.460938 C 21.253906 1.9375 19.3125 0 17.199219 0 C 15.082031 0 13.140625 1.9375 11.726562 5.460938 C 11.523438 5.96875 11.335938 6.5 11.160156 7.054688 C 10.597656 6.90625 10.046875 6.78125 9.507812 6.683594 C 5.777344 6 3.101562 6.609375 1.972656 8.398438 C 1.144531 9.710938 1.242188 11.507812 2.257812 13.605469 C 1.742188 14.089844 1.417969 14.773438 1.417969 15.535156 C 1.417969 16.988281 2.601562 18.171875 4.054688 18.171875 C 4.484375 18.171875 4.894531 18.066406 5.253906 17.878906 C 5.289062 17.921875 5.324219 17.960938 5.363281 18 C 4.734375 18.6875 4.171875 19.375 3.671875 20.0625 C 1.449219 23.136719 0.84375 25.8125 1.972656 27.601562 C 2.800781 28.914062 4.457031 29.589844 6.75 29.589844 C 7.585938 29.589844 8.511719 29.5 9.507812 29.316406 C 10.046875 29.21875 10.597656 29.09375 11.160156 28.945312 C 11.335938 29.5 11.523438 30.03125 11.726562 30.539062 C 13.140625 34.0625 15.082031 36 17.199219 36 C 19.3125 36 21.253906 34.0625 22.667969 30.539062 C 22.871094 30.03125 23.058594 29.5 23.234375 28.945312 C 23.796875 29.09375 24.347656 29.21875 24.886719 29.316406 C 25.882812 29.5 26.808594 29.589844 27.644531 29.589844 C 29.9375 29.589844 31.597656 28.910156 32.421875 27.601562 C 33.550781 25.8125 32.945312 23.136719 30.722656 20.0625 C 30.226562 19.378906 29.660156 18.6875 29.035156 18 C 31.25 15.574219 32.65625 13.164062 32.929688 11.144531 C 33.898438 10.753906 34.582031 9.804688 34.582031 8.699219 Z M 23.339844 13.023438 C 22.660156 12.535156 21.957031 12.0625 21.230469 11.605469 C 20.3125 11.027344 19.386719 10.488281 18.460938 9.996094 C 19.820312 9.367188 21.167969 8.84375 22.472656 8.441406 C 22.851562 9.855469 23.144531 11.398438 23.339844 13.023438 Z M 12.769531 5.878906 C 13.984375 2.859375 15.597656 1.125 17.199219 1.125 C 18.796875 1.125 20.410156 2.859375 21.625 5.878906 C 21.8125 6.351562 21.988281 6.84375 22.152344 7.359375 C 20.570312 7.84375 18.898438 8.515625 17.195312 9.351562 C 15.511719 8.523438 13.839844 7.851562 12.242188 7.363281 C 12.40625 6.847656 12.582031 6.351562 12.769531 5.878906 Z M 11.925781 8.441406 C 13.21875 8.839844 14.570312 9.363281 15.9375 9.996094 C 15.015625 10.484375 14.085938 11.023438 13.164062 11.605469 C 12.4375 12.0625 11.734375 12.539062 11.054688 13.023438 C 11.25 11.398438 11.542969 9.855469 11.925781 8.441406 Z M 2.925781 8.996094 C 3.777344 7.644531 6.105469 7.203125 9.304688 7.789062 C 9.808594 7.882812 10.320312 7.996094 10.84375 8.132812 C 10.363281 9.902344 10.019531 11.863281 9.828125 13.933594 C 8.46875 14.980469 7.226562 16.074219 6.136719 17.179688 C 6.132812 17.175781 6.128906 17.171875 6.125 17.164062 C 6.476562 16.714844 6.691406 16.148438 6.691406 15.535156 C 6.691406 14.082031 5.507812 12.898438 4.054688 12.898438 C 3.765625 12.898438 3.488281 12.945312 3.230469 13.03125 C 2.226562 10.914062 2.496094 9.675781 2.925781 8.996094 Z M 9.710938 20.539062 C 8.695312 19.714844 7.757812 18.863281 6.910156 18 C 7.753906 17.136719 8.691406 16.285156 9.710938 15.457031 C 9.664062 16.292969 9.636719 17.140625 9.636719 18 C 9.636719 18.855469 9.664062 19.707031 9.710938 20.539062 Z M 4.054688 17.046875 C 3.21875 17.046875 2.542969 16.367188 2.542969 15.535156 C 2.542969 14.699219 3.21875 14.023438 4.054688 14.023438 C 4.886719 14.023438 5.566406 14.699219 5.566406 15.535156 C 5.566406 16.367188 4.886719 17.046875 4.054688 17.046875 Z M 9.304688 28.210938 C 6.105469 28.796875 3.777344 28.355469 2.925781 27.003906 C 2.070312 25.648438 2.675781 23.359375 4.585938 20.722656 C 5.042969 20.089844 5.5625 19.453125 6.136719 18.816406 C 7.230469 19.929688 8.472656 21.023438 9.824219 22.066406 C 10.019531 24.136719 10.363281 26.097656 10.84375 27.867188 C 10.320312 28.003906 9.808594 28.117188 9.304688 28.210938 Z M 11.054688 22.976562 C 11.734375 23.464844 12.4375 23.9375 13.164062 24.394531 C 14.082031 24.972656 15.011719 25.511719 15.9375 26.003906 C 14.570312 26.636719 13.222656 27.160156 11.925781 27.558594 C 11.542969 26.144531 11.25 24.605469 11.054688 22.976562 Z M 21.625 30.121094 C 20.410156 33.140625 18.796875 34.875 17.199219 34.875 C 15.597656 34.875 13.984375 33.140625 12.769531 30.121094 C 12.582031 29.648438 12.40625 29.152344 12.242188 28.636719 C 13.839844 28.144531 15.511719 27.476562 17.199219 26.648438 C 18.886719 27.476562 20.554688 28.144531 22.152344 28.636719 C 21.988281 29.152344 21.8125 29.648438 21.625 30.121094 Z M 22.46875 27.558594 C 21.175781 27.160156 19.824219 26.636719 18.457031 26.003906 C 19.382812 25.511719 20.3125 24.972656 21.230469 24.394531 C 21.957031 23.933594 22.664062 23.460938 23.339844 22.976562 C 23.144531 24.605469 22.851562 26.144531 22.46875 27.558594 Z M 20.628906 23.441406 C 19.492188 24.160156 18.339844 24.8125 17.199219 25.394531 C 16.054688 24.8125 14.902344 24.160156 13.765625 23.441406 C 12.765625 22.8125 11.808594 22.152344 10.902344 21.472656 C 10.808594 20.34375 10.761719 19.179688 10.761719 18 C 10.761719 16.820312 10.808594 15.65625 10.902344 14.527344 C 11.808594 13.847656 12.765625 13.1875 13.765625 12.558594 C 14.902344 11.839844 16.054688 11.1875 17.199219 10.605469 C 18.34375 11.1875 19.492188 11.839844 20.628906 12.558594 C 21.628906 13.1875 22.585938 13.847656 23.492188 14.527344 C 23.585938 15.65625 23.632812 16.820312 23.632812 18 C 23.632812 19.179688 23.585938 20.339844 23.492188 21.46875 C 22.589844 22.148438 21.632812 22.8125 20.628906 23.441406 Z M 29.8125 20.722656 C 31.71875 23.359375 32.324219 25.648438 31.472656 27.003906 C 30.617188 28.355469 28.292969 28.796875 25.089844 28.210938 C 24.589844 28.117188 24.074219 28.003906 23.550781 27.867188 C 24.03125 26.097656 24.375 24.136719 24.570312 22.066406 C 25.9375 21.011719 27.179688 19.917969 28.261719 18.820312 C 28.835938 19.453125 29.351562 20.089844 29.8125 20.722656 Z M 24.683594 15.457031 C 25.703125 16.285156 26.640625 17.136719 27.484375 17.996094 C 26.648438 18.851562 25.707031 19.703125 24.683594 20.535156 C 24.734375 19.703125 24.757812 18.855469 24.757812 18 C 24.757812 17.140625 24.734375 16.292969 24.683594 15.457031 Z M 28.257812 17.179688 C 27.167969 16.074219 25.925781 14.980469 24.570312 13.933594 C 24.375 11.863281 24.03125 9.90625 23.550781 8.132812 C 25.953125 7.507812 28.023438 7.371094 29.492188 7.738281 C 29.375 8.035156 29.308594 8.359375 29.308594 8.699219 C 29.308594 10.089844 30.390625 11.230469 31.757812 11.328125 C 31.414062 13.035156 30.160156 15.089844 28.257812 17.179688 Z M 30.433594 8.699219 C 30.433594 7.863281 31.113281 7.1875 31.945312 7.1875 C 32.78125 7.1875 33.457031 7.863281 33.457031 8.699219 C 33.457031 9.53125 32.78125 10.210938 31.945312 10.210938 C 31.113281 10.210938 30.433594 9.53125 30.433594 8.699219 Z M 30.433594 8.699219 "/>
</g>
</svg>
